<svg width="122" height="69" viewBox="0 0 122 69" fill="none" xmlns="http://www.w3.org/2000/svg">
<path d="M102.349 44.7217C102.146 42.374 111.191 24.2143 111.223 24.1585C114.104 17.898 117.697 9.97138 122 0.378665C120.143 0.859629 117.28 1.46814 113.412 2.2042C111.335 7.30216 97.3063 39.273 96.3711 41.3018C95.611 42.94 93.856 46.9778 92.7138 48.0141C91.7348 49.449 90.3539 50.7683 88.4755 52.5899C85.9325 54.6546 84.8739 55.5594 82.8363 56.1493C82.7567 56.1732 80.9619 56.8707 80.0506 56.0098C78.5224 54.5589 86.6568 39.6318 91.9258 27.7299C97.7043 14.5166 102.106 4.9744 103.96 0C101.97 0.585926 99.2683 1.37115 95.4319 2.57091C89.355 17.3187 84.8699 27.7697 81.7897 33.9558C78.7094 40.1419 76.8549 43.7452 76.2182 44.7417C74.2184 48.1952 71.7501 51.3542 68.8837 54.1285C65.6642 57.2374 64.6215 58.1143 63.3958 58.0187C63.2754 58.0187 63.1568 57.9895 63.0502 57.9335C62.9435 57.8775 62.8521 57.7965 62.7836 57.6973C62.7151 57.5982 62.6717 57.4839 62.657 57.3642C62.6423 57.2445 62.6569 57.1231 62.6993 57.0102C64.0484 53.3871 65.9388 49.3494 68.7325 44.0083C72.2584 37.0887 73.7986 34.1193 74.7537 32.2818C74.2947 31.9436 73.73 31.7811 73.1618 31.8234C72.5073 31.9651 71.8657 32.1611 71.2436 32.4093C70.3668 32.7578 69.4225 32.9023 68.4818 32.8318C61.5293 46.1009 50.844 59.4058 47.4334 59.3261C44.0229 59.2463 50.5296 50.4814 53.574 45.2758C57.1557 39.0737 59.2092 36.3514 60.1205 34.0435C59.6509 34.1631 58.2554 34.5617 55.9339 35.2393C54.4013 35.6786 52.8226 35.9368 51.23 36.0086C47.5966 43.0437 45.3799 46.2802 40.8033 52.6776L39.6492 54.2719C39.6492 54.2719 39.2513 54.7782 38.5111 55.7746C37.9552 56.5018 37.3628 57.2002 36.7361 57.8672C34.997 59.6888 30.9378 63.2402 30.5956 58.0227C50.3425 35.2273 54.2227 10.1919 54.2227 10.1919C54.2227 10.1919 54.7918 6.33757 54.4257 4.84685C53.7133 1.95309 50.7166 1.81757 50.7166 1.81757C43.9711 1.47079 42.3037 7.57719 42.3037 7.57719C53.2039 3.42389 40.9784 28.543 40.9784 28.543C28.5978 55.6909 18.0239 62.3274 16.1415 61.889C11.7957 60.8646 21.2314 52.0797 32.1317 26.2631C43.3145 -0.239147 21.6175 7.92795 21.6175 7.92795C7.56933 12.6393 0.959144 33.6968 0.959144 33.6968C-3.2155 50.1545 7.58923 45.3794 7.58923 45.3794C16.2768 40.9033 19.7988 27.8415 19.7988 27.8415C22.0712 20.9419 17.2041 22.4525 17.2041 22.4525C20.6624 25.3583 14.092 35.3947 12.8026 37.3757C11.8037 38.9063 7.23106 44.3351 4.26623 42.956C-0.7919 40.5884 4.70797 28.7383 5.85808 26.8091C7.87178 23.3852 10.2357 19.491 14.3387 15.9755C17.6856 13.1176 21.4543 11.3638 24.4032 11.4834C29.3579 11.6787 28.4187 15.5171 28.4187 15.5171C28.1998 17.7691 21.717 32.6006 21.717 32.6006C17.1603 42.4298 10.0248 57.0102 10.0248 57.0102C5.04624 66.3532 8.17822 68.1987 9.25272 68.5693C14.1716 70.3032 20.7937 66.4967 25.4618 62.5905C27.4118 65.1176 27.6984 65.839 29.2106 66.5764C31.5984 67.1544 33.0311 66.3612 34.5434 64.8425C35.6299 63.7525 36.6193 62.5695 37.5002 61.307C40.0233 57.8433 41.4122 55.9181 41.9694 55.101C41.3525 56.1892 39.9795 60.466 40.0233 61.8133C40.095 63.4714 41.0938 64.7269 43.2667 65.0618C46.1082 65.3966 48.3726 63.4236 50.7365 61.3868C52.6587 59.7087 54.6565 57.4965 56.6463 55.7228C55.8912 57.1449 55.5363 58.7459 55.6196 60.3544C55.7111 61.3828 56.3399 63.7066 59.448 63.3319C62.2616 62.9931 64.9399 61.2114 68.9354 57.2773L72.6564 52.8689C74.5905 50.5571 75.482 49.2816 75.5576 49.2138C74.0692 52.9739 73.4059 55.7148 73.5677 57.4367C73.715 59.1666 74.487 60.3146 75.8799 60.9045C77.3643 61.3031 79.1154 61.048 80.6953 60.6972C84.0461 59.9518 85.6022 58.505 88.5392 55.6511C88.5392 55.6511 90.6404 53.1479 92.7257 50.8002C92.0704 52.2989 90.7956 55.291 88.9013 59.7765C89.6077 59.8616 90.3207 59.879 91.0304 59.8283C93.0653 59.6476 94.7103 58.6206 95.9652 56.7472C98.0664 53.7551 99.1529 52.2152 99.2245 52.1275C100.331 56.6821 102.995 58.776 107.216 58.4093C109.013 58.2965 110.76 57.7704 112.321 56.8717C113.882 55.9731 115.216 54.7261 116.218 53.2276L115.963 50.294C113.01 52.5221 111.888 53.7179 110.475 53.7338C108.278 53.7578 106.189 51.6213 104.199 46.8223C113.047 44.6301 118.759 40.308 121.335 33.8562L114.013 35.9528C110.463 41.153 106.575 44.076 102.349 44.7217Z" fill="#231F20"/>
</svg>
